<mxfile host="app.diagrams.net" modified="2023-06-12T03:04:40.948Z" agent="Mozilla/5.0 (Windows NT 10.0; Win64; x64) AppleWebKit/537.36 (KHTML, like Gecko) Chrome/112.0.0.0 Safari/537.36 OPR/98.0.0.0" etag="g_JD2_KYzGzd84k9VnSp" version="21.3.8" type="github">
  <diagram name="Página-1" id="iDYZdwGdaC_di6ByPW9u">
    <mxGraphModel dx="2225" dy="1912" grid="1" gridSize="10" guides="1" tooltips="1" connect="1" arrows="1" fold="1" page="1" pageScale="1" pageWidth="827" pageHeight="1169" math="0" shadow="0">
      <root>
        <mxCell id="0" />
        <mxCell id="1" parent="0" />
        <mxCell id="mHae93nvf5jGLBsYEnFw-1" value="&lt;font style=&quot;font-size: 18px;&quot;&gt;País&lt;/font&gt;" style="rounded=0;whiteSpace=wrap;html=1;" vertex="1" parent="1">
          <mxGeometry x="380" y="-37" width="120" height="60" as="geometry" />
        </mxCell>
        <mxCell id="mHae93nvf5jGLBsYEnFw-3" value="&lt;font style=&quot;font-size: 18px;&quot;&gt;region&lt;/font&gt;" style="rounded=0;whiteSpace=wrap;html=1;" vertex="1" parent="1">
          <mxGeometry x="380" y="304" width="120" height="60" as="geometry" />
        </mxCell>
        <mxCell id="mHae93nvf5jGLBsYEnFw-4" value="&lt;font style=&quot;font-size: 18px;&quot;&gt;comuna&lt;/font&gt;" style="rounded=0;whiteSpace=wrap;html=1;" vertex="1" parent="1">
          <mxGeometry x="380" y="630" width="120" height="60" as="geometry" />
        </mxCell>
        <mxCell id="mHae93nvf5jGLBsYEnFw-5" value="nombre" style="ellipse;whiteSpace=wrap;html=1;" vertex="1" parent="1">
          <mxGeometry x="260" y="-57" width="90" height="40" as="geometry" />
        </mxCell>
        <mxCell id="mHae93nvf5jGLBsYEnFw-6" value="codigo" style="ellipse;whiteSpace=wrap;html=1;" vertex="1" parent="1">
          <mxGeometry x="350" y="-97" width="90" height="40" as="geometry" />
        </mxCell>
        <mxCell id="mHae93nvf5jGLBsYEnFw-7" value="continente" style="ellipse;whiteSpace=wrap;html=1;" vertex="1" parent="1">
          <mxGeometry x="450" y="-97" width="90" height="40" as="geometry" />
        </mxCell>
        <mxCell id="mHae93nvf5jGLBsYEnFw-9" value="nombre" style="ellipse;whiteSpace=wrap;html=1;" vertex="1" parent="1">
          <mxGeometry x="490" y="254" width="90" height="40" as="geometry" />
        </mxCell>
        <mxCell id="mHae93nvf5jGLBsYEnFw-10" value="idRegion" style="ellipse;whiteSpace=wrap;html=1;" vertex="1" parent="1">
          <mxGeometry x="310" y="254" width="90" height="40" as="geometry" />
        </mxCell>
        <mxCell id="mHae93nvf5jGLBsYEnFw-11" value="nombre" style="ellipse;whiteSpace=wrap;html=1;" vertex="1" parent="1">
          <mxGeometry x="465" y="580" width="90" height="40" as="geometry" />
        </mxCell>
        <mxCell id="mHae93nvf5jGLBsYEnFw-12" value="idComuna" style="ellipse;whiteSpace=wrap;html=1;" vertex="1" parent="1">
          <mxGeometry x="324" y="580" width="90" height="40" as="geometry" />
        </mxCell>
        <mxCell id="mHae93nvf5jGLBsYEnFw-13" value="contiene" style="rhombus;whiteSpace=wrap;html=1;" vertex="1" parent="1">
          <mxGeometry x="400" y="460" width="80" height="80" as="geometry" />
        </mxCell>
        <mxCell id="mHae93nvf5jGLBsYEnFw-14" value="pertenece" style="rhombus;whiteSpace=wrap;html=1;" vertex="1" parent="1">
          <mxGeometry x="400" y="100" width="80" height="80" as="geometry" />
        </mxCell>
        <mxCell id="mHae93nvf5jGLBsYEnFw-15" value="" style="endArrow=none;html=1;rounded=0;entryX=0.5;entryY=1;entryDx=0;entryDy=0;exitX=0.5;exitY=0;exitDx=0;exitDy=0;" edge="1" parent="1" source="mHae93nvf5jGLBsYEnFw-14" target="mHae93nvf5jGLBsYEnFw-1">
          <mxGeometry width="50" height="50" relative="1" as="geometry">
            <mxPoint x="370" y="330" as="sourcePoint" />
            <mxPoint x="420" y="280" as="targetPoint" />
          </mxGeometry>
        </mxCell>
        <mxCell id="mHae93nvf5jGLBsYEnFw-16" value="" style="endArrow=none;html=1;rounded=0;entryX=0.5;entryY=1;entryDx=0;entryDy=0;exitX=0.5;exitY=0;exitDx=0;exitDy=0;" edge="1" parent="1" source="mHae93nvf5jGLBsYEnFw-3" target="mHae93nvf5jGLBsYEnFw-14">
          <mxGeometry width="50" height="50" relative="1" as="geometry">
            <mxPoint x="370" y="330" as="sourcePoint" />
            <mxPoint x="420" y="280" as="targetPoint" />
          </mxGeometry>
        </mxCell>
        <mxCell id="mHae93nvf5jGLBsYEnFw-17" value="" style="endArrow=none;html=1;rounded=0;entryX=0.5;entryY=1;entryDx=0;entryDy=0;exitX=0.5;exitY=0;exitDx=0;exitDy=0;" edge="1" parent="1" source="mHae93nvf5jGLBsYEnFw-4" target="mHae93nvf5jGLBsYEnFw-13">
          <mxGeometry width="50" height="50" relative="1" as="geometry">
            <mxPoint x="370" y="540" as="sourcePoint" />
            <mxPoint x="420" y="490" as="targetPoint" />
          </mxGeometry>
        </mxCell>
        <mxCell id="mHae93nvf5jGLBsYEnFw-18" value="" style="endArrow=none;html=1;rounded=0;entryX=0.5;entryY=1;entryDx=0;entryDy=0;exitX=0.5;exitY=0;exitDx=0;exitDy=0;" edge="1" parent="1" source="mHae93nvf5jGLBsYEnFw-13" target="mHae93nvf5jGLBsYEnFw-3">
          <mxGeometry width="50" height="50" relative="1" as="geometry">
            <mxPoint x="370" y="540" as="sourcePoint" />
            <mxPoint x="420" y="490" as="targetPoint" />
          </mxGeometry>
        </mxCell>
        <mxCell id="mHae93nvf5jGLBsYEnFw-19" value="1" style="text;html=1;align=center;verticalAlign=middle;resizable=0;points=[];autosize=1;strokeColor=none;fillColor=none;" vertex="1" parent="1">
          <mxGeometry x="435" y="68" width="30" height="30" as="geometry" />
        </mxCell>
        <mxCell id="mHae93nvf5jGLBsYEnFw-20" value="N" style="text;html=1;align=center;verticalAlign=middle;resizable=0;points=[];autosize=1;strokeColor=none;fillColor=none;" vertex="1" parent="1">
          <mxGeometry x="445" y="178" width="30" height="30" as="geometry" />
        </mxCell>
        <mxCell id="mHae93nvf5jGLBsYEnFw-21" value="1" style="text;html=1;align=center;verticalAlign=middle;resizable=0;points=[];autosize=1;strokeColor=none;fillColor=none;" vertex="1" parent="1">
          <mxGeometry x="445" y="428" width="30" height="30" as="geometry" />
        </mxCell>
        <mxCell id="mHae93nvf5jGLBsYEnFw-22" value="N" style="text;html=1;align=center;verticalAlign=middle;resizable=0;points=[];autosize=1;strokeColor=none;fillColor=none;" vertex="1" parent="1">
          <mxGeometry x="445" y="538" width="30" height="30" as="geometry" />
        </mxCell>
        <mxCell id="mHae93nvf5jGLBsYEnFw-23" value="poblacion" style="ellipse;whiteSpace=wrap;html=1;" vertex="1" parent="1">
          <mxGeometry x="396" y="707" width="90" height="40" as="geometry" />
        </mxCell>
        <mxCell id="mHae93nvf5jGLBsYEnFw-26" value="&lt;span style=&quot;font-size: 18px;&quot;&gt;entretencion&lt;/span&gt;" style="rounded=0;whiteSpace=wrap;html=1;" vertex="1" parent="1">
          <mxGeometry x="900" y="568" width="120" height="60" as="geometry" />
        </mxCell>
        <mxCell id="mHae93nvf5jGLBsYEnFw-27" value="&lt;font style=&quot;font-size: 18px;&quot;&gt;seguridad&lt;/font&gt;" style="rounded=0;whiteSpace=wrap;html=1;" vertex="1" parent="1">
          <mxGeometry x="680" y="960" width="120" height="60" as="geometry" />
        </mxCell>
        <mxCell id="mHae93nvf5jGLBsYEnFw-28" value="&lt;span style=&quot;font-size: 18px;&quot;&gt;Salud&lt;/span&gt;" style="rounded=0;whiteSpace=wrap;html=1;" vertex="1" parent="1">
          <mxGeometry x="30" y="960" width="120" height="60" as="geometry" />
        </mxCell>
        <mxCell id="mHae93nvf5jGLBsYEnFw-29" value="&lt;font style=&quot;font-size: 18px;&quot;&gt;transporte&lt;/font&gt;" style="rounded=0;whiteSpace=wrap;html=1;" vertex="1" parent="1">
          <mxGeometry x="-160" y="570" width="120" height="60" as="geometry" />
        </mxCell>
      </root>
    </mxGraphModel>
  </diagram>
</mxfile>
